<?xml version="1.0" encoding="UTF-8" standalone="no"?>
<!-- Generated by IcoMoon.io -->

<svg
   xmlns:dc="http://purl.org/dc/elements/1.1/"
   xmlns:cc="http://creativecommons.org/ns#"
   xmlns:rdf="http://www.w3.org/1999/02/22-rdf-syntax-ns#"
   xmlns:svg="http://www.w3.org/2000/svg"
   xmlns="http://www.w3.org/2000/svg"
   xmlns:sodipodi="http://sodipodi.sourceforge.net/DTD/sodipodi-0.dtd"
   xmlns:inkscape="http://www.inkscape.org/namespaces/inkscape"
   version="1.1"
   width="624"
   height="64"
   viewBox="0 0 624 64"
   id="svg3155"
   inkscape:version="0.48.4 r9939"
   sodipodi:docname="sprites_disable.svg">
  <metadata
     id="metadata3269">
    <rdf:RDF>
      <cc:Work
         rdf:about="">
        <dc:format>image/svg+xml</dc:format>
        <dc:type
           rdf:resource="http://purl.org/dc/dcmitype/StillImage" />
        <dc:title></dc:title>
      </cc:Work>
    </rdf:RDF>
  </metadata>
  <defs
     id="defs3267" />
  <sodipodi:namedview
     pagecolor="#ffffff"
     bordercolor="#666666"
     borderopacity="1"
     objecttolerance="10"
     gridtolerance="10"
     guidetolerance="10"
     inkscape:pageopacity="0"
     inkscape:pageshadow="2"
     inkscape:window-width="1366"
     inkscape:window-height="709"
     id="namedview3265"
     showgrid="false"
     inkscape:zoom="1.8717949"
     inkscape:cx="225.9089"
     inkscape:cy="32"
     inkscape:window-x="0"
     inkscape:window-y="27"
     inkscape:window-maximized="1"
     inkscape:current-layer="svg3155" />
  <g
     transform="translate(0 0)"
     id="g3157"
     style="fill:#d3d3d3">
    <path
       d="M10.2 1.2h-1.079c-0.265 0-0.481 0.216-0.481 0.48v4.56h-4.243c-0.198 0-0.444 0.046-0.679 0.118-0.238 0.073-0.464 0.174-0.626 0.284l-2.85 1.956c-0.161 0.11-0.241 0.256-0.241 0.402s0.080 0.292 0.241 0.402l2.85 1.956c0.162 0.11 0.389 0.211 0.626 0.284 0.235 0.072 0.481 0.118 0.679 0.118h4.243v10.56c0 0.265 0.216 0.48 0.48 0.48h1.080c0.265 0 0.48-0.216 0.48-0.48v-20.64c0-0.264-0.215-0.48-0.48-0.48zM23.759 6.199l-2.85-1.956c-0.161-0.11-0.388-0.211-0.625-0.284-0.236-0.073-0.482-0.119-0.68-0.119h-8.203l0.961 5.52h7.242c0.198 0 0.444-0.046 0.68-0.118s0.464-0.174 0.625-0.283l2.85-1.956c0.162-0.112 0.241-0.257 0.241-0.403s-0.079-0.292-0.241-0.401z"
       fill="#f04124"
       id="path3159"
       style="fill:#d3d3d3" />
  </g>
  <g
     transform="translate(40 0)"
     id="g3161"
     style="fill:#d3d3d3">
    <path
       d="M17.784 17.338c-2.958-1.078-3.904-1.987-3.904-3.935 0-1.169 0.904-0.787 1.3-2.928 0.164-0.888 0.962-0.014 1.116-2.041 0-0.808-0.436-1.009-0.436-1.009s0.222-1.196 0.308-2.116c0.106-1.147-0.662-4.109-4.769-4.109-4.105 0-4.876 2.962-4.768 4.109 0.086 0.919 0.308 2.116 0.308 2.116s-0.437 0.2-0.437 1.009c0.152 2.027 0.95 1.153 1.115 2.041 0.397 2.141 1.301 1.759 1.301 2.928 0 1.948-0.946 2.857-3.904 3.935-2.969 1.080-4.896 2.183-4.896 2.935 0 0.751 0 2.526 0 2.526h22.56c0 0 0-1.775 0-2.526s-1.928-1.854-4.896-2.935z"
       fill="#f04124"
       id="path3163"
       style="fill:#d3d3d3" />
  </g>
  <g
     transform="translate(80 0)"
     id="g3165"
     style="fill:#d3d3d3">
    <path
       d="M12 2.4c-3.314 0-6 2.687-6 6 0 5.729 6 13.2 6 13.2s6-7.471 6-13.2c0-3.313-2.686-6-6-6zM12 11.712c-1.789 0-3.24-1.451-3.24-3.24s1.451-3.24 3.24-3.24 3.24 1.451 3.24 3.24-1.451 3.24-3.24 3.24z"
       fill="#f04124"
       id="path3167"
       style="fill:#d3d3d3" />
  </g>
  <g
     transform="translate(120 0)"
     id="g3169"
     style="fill:#d3d3d3">
    <path
       d="M22.433 3.162c-0.412 0.145-20.785 7.324-21.186 7.465-0.341 0.12-0.418 0.414-0.012 0.575 0.481 0.193 4.555 1.825 4.555 1.825h-0.001l2.701 1.082c0 0 13.004-9.551 13.181-9.679 0.176-0.13 0.382 0.114 0.253 0.253-0.128 0.14-9.445 10.217-9.445 10.217-0.001 0-0.001 0-0.001 0l-0.542 0.605 0.719 0.386c0 0 5.58 3.004 5.977 3.218 0.348 0.187 0.802 0.031 0.902-0.402 0.119-0.511 3.414-14.714 3.487-15.029 0.096-0.412-0.175-0.662-0.588-0.517zM8.466 20.594c0 0.296 0.167 0.378 0.397 0.169 0.3-0.274 3.419-3.072 3.419-3.072l-3.816-1.975v4.878z"
       fill="#f04124"
       id="path3171"
       style="fill:#d3d3d3" />
  </g>
  <g
     transform="translate(160 0)"
     id="g3173"
     style="fill:#d3d3d3">
    <path
       d="M12 1.68c-5.699 0-10.32 4.621-10.32 10.32 0 5.7 4.621 10.32 10.32 10.32 5.7 0 10.32-4.62 10.32-10.32 0-5.699-4.62-10.32-10.32-10.32zM12.84 20.358v-4.638h-1.68v4.638c-3.968-0.394-7.123-3.55-7.518-7.518h4.638v-1.68h-4.638c0.395-3.968 3.55-7.124 7.518-7.518v4.638h1.68v-4.638c3.97 0.394 7.124 3.55 7.518 7.518h-4.638v1.68h4.638c-0.394 3.968-3.548 7.124-7.518 7.518z"
       fill="#f04124"
       id="path3175"
       style="fill:#d3d3d3" />
  </g>
  <g
     transform="translate(200 0)"
     id="g3177"
     style="fill:#d3d3d3">
    <path
       d="M20.668 8.435c-1.9-4.422-4.958-7.789-6.505-7.159-2.627 1.068 1.566 6.197-11.335 11.441-1.115 0.452-1.397 2.266-0.93 3.349 0.466 1.084 1.99 2.162 3.104 1.71 0.192-0.078 0.901-0.306 0.901-0.306 0.796 1.068 1.628 0.434 1.925 1.114 0.355 0.816 1.127 2.588 1.388 3.191 0.264 0.602 0.859 1.162 1.291 0.997 0.43-0.164 1.897-0.724 2.459-0.936s0.696-0.714 0.524-1.109c-0.185-0.425-0.943-0.55-1.159-1.046-0.217-0.497-0.924-2.087-1.127-2.588-0.276-0.682 0.311-1.236 1.164-1.325 5.873-0.612 6.971 3.016 8.97 2.202 1.543-0.631 1.229-5.112-0.671-9.534zM20.006 15.607c-0.343 0.139-2.654-1.682-4.132-5.12-1.476-3.437-1.29-6.578-0.948-6.718 0.343-0.14 2.598 2.059 4.075 5.496 1.475 3.436 1.348 6.203 1.004 6.342z"
       fill="#f04124"
       id="path3179"
       style="fill:#d3d3d3" />
  </g>
  <g
     transform="translate(240 0)"
     id="g3181"
     style="fill:#d3d3d3">
    <path
       d="M3.761 8.268c1.121-0.87 2.050-0.271 3.289 1.164 0.14 0.161 0.328-0.028 0.433-0.12 0.106-0.094 1.742-1.565 1.822-1.633 0.080-0.071 0.176-0.203 0.049-0.35s-0.593-0.75-0.892-1.14c-2.17-2.838 5.935-4.763 4.69-4.793-0.632-0.017-3.175-0.046-3.554-0.006-1.54 0.163-3.473 1.602-4.446 2.272-1.272 0.875-1.748 1.382-1.826 1.453-0.36 0.316-0.058 1.040-0.71 1.613-0.69 0.605-1.12 0.148-1.519 0.498-0.199 0.175-0.752 0.589-0.912 0.73-0.158 0.139-0.187 0.376-0.025 0.565 0 0 1.516 1.675 1.644 1.823 0.127 0.148 0.469 0.272 0.682 0.085 0.212-0.186 0.757-0.665 0.85-0.746 0.094-0.080-0.060-1.036 0.427-1.414zM10.612 8.887c-0.144-0.167-0.322-0.17-0.476-0.034l-1.722 1.501c-0.134 0.12-0.152 0.341-0.031 0.48l9.953 11.326c0.232 0.269 0.635 0.296 0.902 0.064l1.165-0.974c0.265-0.233 0.293-0.641 0.061-0.908l-9.852-11.454zM23.882 4.067c-0.089-0.593-0.396-0.468-0.556-0.216-0.157 0.251-0.865 1.321-1.156 1.805-0.288 0.482-0.996 1.429-2.321 0.494-1.378-0.974-0.898-1.655-0.659-2.112 0.241-0.46 0.982-1.746 1.090-1.908 0.106-0.162-0.019-0.632-0.445-0.436-0.428 0.198-3.028 1.231-3.389 2.712-0.368 1.508 0.31 2.855-1.020 4.193l-1.61 1.68 1.618 1.882 1.985-1.885c0.474-0.475 1.483-0.937 2.398-0.73 1.96 0.444 3.028-0.293 3.673-1.508 0.578-1.088 0.482-3.378 0.392-3.971zM3.288 20.461c-0.25 0.252-0.25 0.66 0 0.911l1.141 1.116c0.25 0.251 0.646 0.145 0.895-0.106l5.888-5.79-1.805-2.056-6.12 5.924z"
       fill="#f04124"
       id="path3183"
       style="fill:#d3d3d3" />
  </g>
  <g
     transform="translate(280 0)"
     id="g3185"
     style="fill:#d3d3d3">
    <path
       d="M20.142 12c0-1.258 0.774-2.25 1.938-2.932-0.211-0.701-0.487-1.374-0.829-2.006-1.308 0.342-2.365-0.17-3.253-1.058-0.89-0.889-1.163-1.948-0.821-3.253-0.632-0.342-1.303-0.622-2.006-0.83-0.682 1.165-1.914 1.939-3.17 1.939-1.256 0-2.488-0.774-3.17-1.939-0.703 0.209-1.374 0.488-2.006 0.829 0.341 1.307 0.070 2.365-0.82 3.254-0.889 0.888-1.948 1.4-3.253 1.060-0.342 0.631-0.62 1.304-0.83 2.005 1.165 0.682 1.939 1.674 1.939 2.932 0 1.256-0.774 2.489-1.939 3.172 0.21 0.702 0.488 1.374 0.83 2.006 1.307-0.342 2.364-0.070 3.253 0.82 0.889 0.889 1.16 1.946 0.82 3.253 0.632 0.342 1.304 0.622 2.006 0.83 0.683-1.166 1.914-1.939 3.17-1.939 1.256 0 2.49 0.774 3.172 1.939 0.703-0.21 1.374-0.488 2.006-0.83-0.342-1.307-0.071-2.364 0.821-3.253 0.888-0.888 1.945-1.4 3.253-1.060 0.342-0.632 0.619-1.304 0.829-2.006-1.165-0.683-1.939-1.675-1.939-2.932zM12 16.384c-2.42 0-4.382-1.963-4.382-4.384s1.962-4.384 4.382-4.384c2.422 0 4.384 1.963 4.384 4.384s-1.962 4.384-4.384 4.384z"
       fill="#f04124"
       id="path3187"
       style="fill:#d3d3d3" />
  </g>
  <g
     transform="translate(320 0)"
     id="g3189"
     style="fill:#d3d3d3">
    <path
       d="M9.431 17.633l-0.972 0.965c-0.842 0.834-2.212 0.835-3.053 0-0.404-0.402-0.626-0.934-0.626-1.501s0.223-1.1 0.626-1.502l3.576-3.548c0.74-0.736 2.135-1.817 3.151-0.809 0.467 0.463 1.22 0.46 1.682-0.006 0.463-0.466 0.461-1.219-0.006-1.682-1.727-1.714-4.28-1.397-6.504 0.809l-3.576 3.548c-0.857 0.852-1.33 1.985-1.33 3.191 0 1.205 0.473 2.338 1.331 3.19 0.883 0.877 2.042 1.314 3.202 1.314s2.321-0.437 3.204-1.314l0.972-0.966c0.467-0.463 0.469-1.217 0.006-1.681-0.463-0.466-1.217-0.468-1.684-0.006zM20.269 3.851c-1.855-1.841-4.448-1.94-6.167-0.236l-1.211 1.201c-0.467 0.463-0.47 1.216-0.007 1.682 0.464 0.467 1.217 0.469 1.682 0.006l1.211-1.201c0.889-0.883 2.054-0.517 2.815 0.236 0.404 0.401 0.626 0.935 0.626 1.501 0 0.568-0.223 1.1-0.626 1.501l-3.816 3.785c-1.744 1.73-2.563 0.919-2.912 0.572-0.467-0.463-1.219-0.46-1.681 0.006-0.463 0.467-0.461 1.22 0.006 1.682 0.8 0.794 1.716 1.188 2.674 1.188 1.174 0 2.413-0.59 3.592-1.76l3.815-3.785c0.858-0.851 1.331-1.984 1.331-3.188s-0.473-2.339-1.331-3.191z"
       fill="#f04124"
       id="path3191"
       style="fill:#d3d3d3" />
  </g>
  <g
     transform="translate(360 0)"
     id="g3193"
     style="fill:#d3d3d3">
    <path
       d="M17.58 10.216c-2.736-5.888-4.158-8.125-8.629-8.032-1.592 0.032-1.21-1.153-2.424-0.703-1.213 0.449-0.172 1.108-1.414 2.126-3.482 2.858-3.162 5.503-1.547 11.808 0.682 2.654-1.64 2.785-0.722 5.359 0.671 1.876 5.615 2.663 10.831 0.726 5.216-1.934 8.508-5.776 7.837-7.654-0.918-2.573-2.779-1.152-3.932-3.631zM13.109 19.915c-4.657 1.728-8.486 0.712-8.648 0.26-0.278-0.779 1.504-3.379 6.829-5.356 5.326-1.976 8.298-1.243 8.609-0.373 0.184 0.514-2.13 3.739-6.79 5.468zM11.612 15.722c-2.436 0.904-4.128 1.937-5.224 2.868 0.772 0.701 2.215 0.871 3.655 0.337 1.832-0.68 2.958-2.242 2.513-3.486-0.005-0.016-0.013-0.029-0.019-0.043-0.3 0.097-0.608 0.205-0.925 0.324z"
       fill="#f04124"
       id="path3195"
       style="fill:#d3d3d3" />
  </g>
  <g
     transform="translate(400 0)"
     id="g3197"
     style="fill:#d3d3d3">
    <path
       d="M20.538 3.461c-2.011-2.010-4.535-2.746-5.339-1.942l-3.235 3.236c-0.491 0.491-0.919 2.134-0.722 3.796l-9.793 9.794c-0.581 0.58-0.11 1.992 1.051 3.154 1.162 1.163 2.575 1.632 3.155 1.052l9.793-9.793c1.663 0.197 3.306-0.232 3.796-0.722l3.236-3.236c0.804-0.804 0.068-3.328-1.942-5.339zM9.769 13.248c-0.448-0.446-0.301-1.316 0.323-1.942s1.494-0.77 1.942-0.324c0.445 0.446 0.301 1.316-0.324 1.942-0.625 0.625-1.494 0.77-1.94 0.324zM17.869 6.131c-1.558-1.558-1.949-3.612-1.811-3.751 0.139-0.139 2.113 0.334 3.672 1.891 1.558 1.558 2.024 3.536 1.89 3.671s-2.195-0.253-3.751-1.811z"
       fill="#f04124"
       id="path3199"
       style="fill:#d3d3d3" />
  </g>
  <g
     transform="translate(440 0)"
     id="g3201"
     style="fill:#d3d3d3">
    <path
       d="M21.054 18.562l-4.535-4.535c0.684-1.124 1.078-2.442 1.078-3.854 0-4.099-3.553-7.652-7.654-7.652-4.099 0-7.423 3.324-7.423 7.423 0 4.1 3.552 7.654 7.652 7.654 1.363 0 2.64-0.37 3.738-1.012l4.559 4.56c0.448 0.446 1.17 0.446 1.615 0l1.132-1.13c0.445-0.446 0.283-1.008-0.162-1.453zM4.805 9.943c0-2.838 2.3-5.14 5.138-5.14 2.839 0 5.369 2.53 5.369 5.369s-2.3 5.14-5.14 5.14-5.368-2.53-5.368-5.369z"
       fill="#f04124"
       id="path3203"
       style="fill:#d3d3d3" />
  </g>
  <g
     transform="translate(480 0)"
     id="g3205"
     style="fill:#d3d3d3">
    <path
       d="M5.105 23.714c0.367-1.201 0.924-2.893 1.669-5.341 3.247-0.524 4.591 0.419 6.654-3.341-1.674 0.523-3.692-0.971-3.583-1.618 0.108-0.648 4.696 0.467 7.698-3.886-3.785 0.851-4.997-1.024-4.508-1.307 1.127-0.654 4.472-0.271 6.256-2.044 0.919-0.912 1.349-3.131 0.976-3.923-0.45-0.955-3.188-2.381-4.698-2.248-1.51 0.134-3.877 5.867-4.579 5.821s-0.842-2.567 0.383-4.912c-1.292 0.583-3.66 2.399-4.403 3.95-1.384 2.887 0.13 9.508-0.355 9.744-0.486 0.235-2.119-3.040-2.606-4.524-0.666 2.275-0.682 4.555 1.265 7.584-0.734 1.987-1.135 4.274-1.196 5.437-0.029 0.931 0.868 1.13 1.030 0.605z"
       fill="#f04124"
       id="path3207"
       style="fill:#d3d3d3" />
  </g>
  <g
     transform="translate(520 0)"
     id="g3209"
     style="fill:#d3d3d3">
    <path
       d="M22.428 14.815l-2.072-1.848c-0.6-0.535-0.6-1.409 0-1.944l2.072-1.847c0.6-0.535 0.439-1.033-0.356-1.109l-2.747-0.26c-0.796-0.076-1.224-0.76-0.95-1.52l1.458-4.058c0.274-0.761-0.061-1.038-0.743-0.616l-3.241 2.004c-0.682 0.422-1.562 0.192-1.957-0.512l-1.175-2.095c-0.394-0.704-1.046-0.708-1.448-0.008l-1.091 1.898c-0.402 0.7-1.326 0.998-2.053 0.664l-1.92-0.882c-0.728-0.334-1.288 0.053-1.244 0.862l0.104 1.938c0.043 0.808-0.553 1.64-1.325 1.848l-1.854 0.498c-0.772 0.209-0.913 0.816-0.313 1.351l2.072 1.847c0.6 0.534 0.6 1.409 0 1.943l-2.072 1.846c-0.6 0.536-0.442 1.052 0.352 1.148l2.514 0.305c0.793 0.098 1.236 0.806 0.983 1.573l-1.29 3.91c-0.253 0.769 0.108 1.069 0.802 0.666l2.956-1.709c0.695-0.403 1.627-0.18 2.074 0.49l1.228 1.844c0.445 0.673 1.116 0.635 1.487-0.082l1.079-2.078c0.373-0.718 1.264-1.010 1.979-0.652l2.081 1.040c0.718 0.359 1.268-0.010 1.225-0.818l-0.104-1.938c-0.043-0.809 0.553-1.64 1.325-1.849l1.853-0.497c0.774-0.21 0.916-0.817 0.316-1.351zM13.2 17.034h-2.4v-2.52h2.4v2.52zM13.2 13.195h-2.4v-6.24h2.4v6.24z"
       fill="#f04124"
       id="path3211"
       style="fill:#d3d3d3" />
  </g>
  <g
     transform="translate(560 0)"
     id="g3213"
     style="fill:#d3d3d3">
    <path
       d="M12 5.28c-7.873 0-12 5.8-12 6.72s4.127 6.72 12 6.72 12-5.8 12-6.72-4.127-6.72-12-6.72zM12 17.17c-2.945 0-5.333-2.315-5.333-5.17s2.388-5.17 5.333-5.17c2.946 0 5.334 2.315 5.334 5.17s-2.388 5.17-5.334 5.17zM12 12c-0.487-0.535 0.797-2.584 0-2.584-1.472 0-2.666 1.157-2.666 2.584s1.194 2.585 2.666 2.585c1.474 0 2.668-1.158 2.668-2.585 0-0.655-2.251 0.456-2.668 0z"
       fill="#f04124"
       id="path3215"
       style="fill:#d3d3d3" />
  </g>
  <g
     transform="translate(600 0)"
     id="g3217"
     style="fill:#d3d3d3">
    <path
       d="M21.228 5.671c-0.602-3.574-3.864-5.96-7.283-5.329-3.42 0.63-6.305 3.379-5.702 6.953 0.131 0.769 0.49 1.974 0.916 2.838l-6.21 9.268c-0.229 0.342-0.359 0.959-0.29 1.369l0.4 2.365c0.070 0.41 0.448 0.686 0.84 0.614l1.819-0.335c0.394-0.073 0.892-0.419 1.109-0.769l2.478-3.997 1.662-0.307 2.867-4.654c0.943 0.167 2.294 0.11 3.094-0.037 3.421-0.631 4.906-4.405 4.302-7.979zM18.199 7.502c-0.941 1.403-1.9 0.414-3.244-0.57-1.343-0.983-2.562-1.588-1.621-2.99 0.941-1.404 2.791-1.746 4.135-0.762 1.344 0.983 1.67 2.92 0.73 4.322z"
       fill="#f04124"
       id="path3219"
       style="fill:#d3d3d3" />
  </g>
  <g
     transform="translate(0 40)"
     id="g3221"
     style="fill:#d3d3d3">
    <path
       d="M8.622 23.004c0.947 0.612 2.044 1.026 3.378 0.994 1.334 0.032 2.43-0.382 3.377-0.994v-2.484h-6.755v2.484zM15.235 19.079c0-5.227 5.557-6.9 5.141-12.107-0.262-3.286-2.488-6.972-8.376-6.972s-8.114 3.686-8.376 6.972c-0.416 5.208 5.14 6.88 5.14 12.107h6.472zM6.166 7.162c0.25-3.119 2.371-4.7 5.834-4.7s5.585 1.582 5.833 4.7c0.136 1.708-0.846 2.846-2.172 4.711-0.976 1.375-2.13 2.999-2.67 5.113h-1.984c-0.54-2.114-1.693-3.737-2.671-5.113-1.325-1.866-2.306-3.004-2.171-4.711z"
       fill="#f04124"
       id="path3223"
       style="fill:#d3d3d3" />
  </g>
  <g
     transform="translate(40 40)"
     id="g3225"
     style="fill:#d3d3d3">
    <path
       d="M11.852 0.961c-6.096 0.082-10.973 5.090-10.891 11.188 0.082 6.094 5.090 10.972 11.186 10.89 6.096-0.082 10.973-5.090 10.891-11.188-0.080-6.095-5.090-10.972-11.186-10.89zM13.076 4.64c1.122 0 1.453 0.65 1.453 1.396 0 0.93-0.745 1.79-2.016 1.79-1.063 0-1.568-0.535-1.538-1.418 0-0.745 0.624-1.768 2.101-1.768zM10.199 18.9c-0.767 0-1.328-0.466-0.792-2.513l0.88-3.629c0.152-0.582 0.178-0.815 0-0.815-0.229 0-1.225 0.402-1.814 0.798l-0.383-0.628c1.866-1.558 4.012-2.472 4.931-2.472 0.767 0 0.894 0.907 0.511 2.303l-1.008 3.816c-0.178 0.674-0.101 0.907 0.077 0.907 0.229 0 0.984-0.278 1.726-0.862l0.433 0.582c-1.813 1.813-3.792 2.512-4.56 2.512z"
       fill="#f04124"
       id="path3227"
       style="fill:#d3d3d3" />
  </g>
  <g
     transform="translate(80 40)"
     id="g3229"
     style="fill:#d3d3d3">
    <path
       d="M11.854 0.961c-6.097 0.082-10.974 5.090-10.892 11.188 0.082 6.094 5.090 10.972 11.188 10.89 6.095-0.082 10.973-5.090 10.89-11.188-0.080-6.095-5.089-10.972-11.185-10.89zM11.821 18.72h-0.061c-0.938-0.028-1.601-0.72-1.574-1.645 0.026-0.908 0.704-1.57 1.613-1.57l0.055 0.001c0.965 0.029 1.62 0.714 1.591 1.666-0.026 0.911-0.695 1.548-1.624 1.548zM15.77 10.882c-0.222 0.313-0.707 0.703-1.319 1.18l-0.674 0.466c-0.37 0.288-0.593 0.558-0.676 0.823-0.067 0.211-0.098 0.265-0.104 0.691l-0.001 0.109h-2.572l0.007-0.218c0.031-0.895 0.054-1.421 0.425-1.856 0.582-0.683 1.866-1.51 1.92-1.544 0.184-0.139 0.338-0.296 0.455-0.464 0.27-0.372 0.389-0.666 0.389-0.953 0-0.4-0.119-0.769-0.353-1.098-0.226-0.318-0.654-0.479-1.273-0.479-0.614 0-1.034 0.196-1.286 0.595-0.26 0.412-0.39 0.842-0.39 1.284v0.11h-2.652l0.005-0.115c0.068-1.625 0.648-2.794 1.723-3.476 0.674-0.436 1.514-0.655 2.494-0.655 1.283 0 2.368 0.312 3.22 0.926 0.864 0.623 1.302 1.556 1.302 2.773 0 0.682-0.215 1.321-0.638 1.902z"
       fill="#f04124"
       id="path3231"
       style="fill:#d3d3d3" />
  </g>
  <g
     transform="translate(120 40)"
     id="g3233"
     style="fill:#d3d3d3">
    <path
       d="M18.256 9.167c-0.33 0-0.655 0.029-0.971 0.082-0.787-2.574-3.226-4.45-6.115-4.45-3.526 0-6.383 2.794-6.383 6.24 0 0.307 0.024 0.61 0.068 0.906-0.169-0.019-0.34-0.032-0.515-0.032-2.396 0-4.34 1.901-4.34 4.243 0 2.344 1.944 4.243 4.34 4.243h5.98v-4.56h-2.52l4.2-5.52 4.2 5.52h-2.52v4.56h4.574c3.174 0 5.744-2.515 5.744-5.616 0.001-3.102-2.57-5.616-5.743-5.616z"
       fill="#f04124"
       id="path3235"
       style="fill:#d3d3d3" />
  </g>
  <g
     transform="translate(160 40)"
     id="g3237"
     style="fill:#d3d3d3">
    <path
       d="M18.256 9.167c-0.33 0-0.655 0.029-0.971 0.082-0.787-2.574-3.226-4.45-6.115-4.45-3.526 0-6.383 2.794-6.383 6.24 0 0.307 0.024 0.61 0.068 0.906-0.169-0.019-0.34-0.032-0.515-0.032-2.396 0-4.34 1.901-4.34 4.243 0 2.344 1.944 4.243 4.34 4.243h13.915c3.174 0 5.744-2.515 5.744-5.616 0-3.102-2.572-5.616-5.744-5.616z"
       fill="#f04124"
       id="path3239"
       style="fill:#d3d3d3" />
  </g>
  <g
     transform="translate(200 40)"
     id="g3241"
     style="fill:#d3d3d3">
    <path
       d="M23.414 21.578l-10.69-18.757c-0.148-0.259-0.425-0.419-0.725-0.419s-0.576 0.16-0.725 0.419l-10.688 18.757c-0.145 0.254-0.143 0.565 0.006 0.817s0.422 0.407 0.718 0.407h21.378c0.293 0 0.568-0.155 0.718-0.407 0.149-0.252 0.151-0.563 0.008-0.817zM13.32 20.402h-2.64v-2.4h2.64v2.4zM13.32 16.202h-2.64v-7.2h2.64v7.2z"
       fill="#f04124"
       id="path3243"
       style="fill:#d3d3d3" />
  </g>
  <g
     transform="translate(240 40)"
     id="g3245"
     style="fill:#d3d3d3">
    <path
       d="M23.040 12c0-6.097-4.943-11.040-11.040-11.040s-11.040 4.943-11.040 11.040c0 6.098 4.943 11.041 11.040 11.041s11.040-4.944 11.040-11.041zM3.36 12c0-4.771 3.869-8.64 8.64-8.64s8.64 3.869 8.64 8.64c0 4.772-3.869 8.641-8.64 8.641s-8.64-3.869-8.64-8.641zM16.62 14.16v-4.32h-4.908v-2.7l-4.572 4.86 4.572 4.86v-2.7h4.908z"
       fill="#f04124"
       id="path3247"
       style="fill:#d3d3d3" />
  </g>
  <g
     transform="translate(280 40)"
     id="g3249"
     style="fill:#d3d3d3">
    <path
       d="M0.96 12c0 6.097 4.944 11.040 11.040 11.040 6.097 0 11.040-4.943 11.040-11.040 0-6.097-4.943-11.040-11.040-11.040-6.097 0-11.040 4.943-11.040 11.040zM20.64 12c0 4.771-3.869 8.64-8.64 8.64s-8.64-3.868-8.64-8.64c0-4.772 3.868-8.64 8.64-8.64s8.64 3.868 8.64 8.64zM7.38 9.84v4.32h4.908v2.7l4.572-4.86-4.572-4.86v2.7h-4.908z"
       fill="#f04124"
       id="path3251"
       style="fill:#d3d3d3" />
  </g>
  <g
     transform="translate(320 40)"
     id="g3253"
     style="fill:#d3d3d3">
    <path
       d="M6.328 8.297c0.241 0 0.474 0.036 0.692 0.104 0.828-0.928 1.746-1.772 2.74-2.521-0.041-0.174-0.066-0.356-0.066-0.545 0-0.262 0.043-0.511 0.122-0.744-1.112-0.799-2.324-1.469-3.611-1.987-1.208 0.746-2.261 1.72-3.1 2.86 0.623 1.103 1.364 2.131 2.206 3.068 0.308-0.15 0.653-0.235 1.016-0.235zM3.979 10.645c0-0.329 0.068-0.643 0.191-0.928-0.752-0.828-1.436-1.721-2.035-2.674-0.75 1.49-1.175 3.174-1.175 4.956 0 2.065 0.569 3.996 1.555 5.648 0.352-1.986 1.021-3.864 1.944-5.585-0.3-0.394-0.48-0.884-0.48-1.418zM12.042 2.986c0.622 0 1.183 0.242 1.603 0.635 1.225-0.527 2.516-0.931 3.859-1.189-1.621-0.934-3.499-1.471-5.504-1.471-1.367 0-2.675 0.251-3.882 0.706 0.959 0.474 1.873 1.025 2.731 1.649 0.35-0.208 0.757-0.329 1.193-0.329zM15.556 14.050c0.146-0.305 0.354-0.574 0.611-0.787-0.694-2.134-1.792-4.085-3.206-5.765-0.282 0.12-0.592 0.186-0.918 0.186-0.509 0-0.979-0.164-1.364-0.439-0.852 0.647-1.639 1.373-2.356 2.165 0.223 0.359 0.354 0.781 0.354 1.236 0 0.246-0.037 0.481-0.107 0.704 2.060 1.376 4.432 2.321 6.986 2.7zM18.602 17.221c0.031 0.444 0.049 0.893 0.049 1.345 0 0.798-0.052 1.582-0.148 2.353 1.873-1.368 3.298-3.308 4.018-5.567-0.852 0.206-1.726 0.354-2.617 0.439-0.21 0.642-0.688 1.163-1.302 1.429zM15.005 15.628c-2.725-0.451-5.252-1.49-7.451-2.981-0.358 0.22-0.775 0.348-1.225 0.348-0.166 0-0.325-0.018-0.481-0.050-1.052 1.997-1.726 4.224-1.92 6.583 1.051 1.127 2.334 2.034 3.775 2.644 1.788-2.749 4.289-5.026 7.302-6.544zM19.411 3.818c-1.769 0.17-3.458 0.614-5.032 1.282 0.010 0.077 0.013 0.156 0.013 0.235 0 0.371-0.088 0.72-0.241 1.031 1.572 1.846 2.792 3.996 3.564 6.349 0.954 0.018 1.771 0.602 2.123 1.434 1.063-0.108 2.098-0.312 3.095-0.605 0.068-0.504 0.107-1.019 0.107-1.544 0-3.245-1.4-6.163-3.629-8.182zM16.187 16.883c-2.814 1.318-5.165 3.347-6.869 5.827 0.858 0.215 1.757 0.33 2.682 0.33 1.667 0 3.244-0.371 4.66-1.031 0.227-1.112 0.348-2.263 0.348-3.443 0-0.425-0.020-0.847-0.052-1.266-0.283-0.090-0.544-0.233-0.769-0.418z"
       fill="#f04124"
       id="path3255"
       style="fill:#d3d3d3" />
  </g>
  <g
     transform="translate(360 40)"
     id="g3257"
     style="fill:#d3d3d3">
    <path
       d="M22.524 12.36l-9.629-9.637c-0.492-0.511-1.297-0.511-1.789 0l-9.63 9.637c-0.493 0.51-0.31 0.929 0.408 0.929h2.008v7.402c0 0.534 0.023 0.971 0.989 0.971h4.674v-7.426h4.89v7.426h4.907c0.737 0 0.757-0.436 0.757-0.971v-7.402h2.006c0.716 0 0.901-0.418 0.409-0.929z"
       fill="#f04124"
       id="path3259"
       style="fill:#d3d3d3" />
  </g>
  <g
     transform="translate(400 40)"
     id="g3261"
     style="fill:#d3d3d3">
    <path
       d="M18.482 17.284l-3.151-9.043c-0.868-2.489-3.56-3.864-6.112-3.185l-2.371-4.601c-0.215-0.416-0.718-0.576-1.124-0.356-0.407 0.221-0.563 0.737-0.348 1.153l2.315 4.492c-1.844 1.224-2.803 3.544-2.196 5.728l2.568 9.235c0.722 2.596 3.696 3.918 6.685 3.004 2.951-1.036 4.621-3.884 3.734-6.426zM10.679 10.708c-0.875 0.287-1.813-0.206-2.094-1.105-0.281-0.898 0.202-1.859 1.078-2.146 0.876-0.288 1.814 0.206 2.095 1.104s-0.202 1.859-1.079 2.147z"
       fill="#f04124"
       id="path3263"
       style="fill:#d3d3d3" />
  </g>
</svg>
