<?xml version="1.0" encoding="utf-8"?>
<!-- Generated by IcoMoon.io -->
<!DOCTYPE svg PUBLIC "-//W3C//DTD SVG 1.1//EN" "http://www.w3.org/Graphics/SVG/1.1/DTD/svg11.dtd">

<svg version="1.1" xmlns="http://www.w3.org/2000/svg" xmlns:xlink="http://www.w3.org/1999/xlink" width="224" height="24" viewBox="0 0 224 24">
<defs>
<g id="icon-home">
	<path class="path1" d="M24 13.839l-12-9.315-12 9.315v-3.798l12-9.315 12 9.315zM21 13.5v9h-6v-6h-6v6h-6v-9l9-6.75z"></path>
</g>
<g id="icon-book">
	<path class="path1" d="M21 3v19.5h-15.75c-1.243 0-2.25-1.007-2.25-2.25s1.007-2.25 2.25-2.25h14.25v-18h-15c-1.65 0-3 1.35-3 3v18c0 1.65 1.35 3 3 3h18v-21h-1.5zM6 19.5h13.5v1.5h-13.5z"></path>
</g>
<g id="icon-download">
	<path class="path1" d="M12 13.5l6-6h-4.5v-6h-3v6h-4.5zM17.455 11.045l-1.681 1.681 6.096 2.273-9.869 3.68-9.869-3.68 6.096-2.273-1.681-1.681-6.545 2.455v6l12 4.5 12-4.5v-6z"></path>
</g>
<g id="icon-mail">
	<path class="path1" d="M12 0c-6.627 0-12 5.373-12 12s5.373 12 12 12 12-5.373 12-12-5.373-12-12-12zM6 6h12c0.214 0 0.422 0.046 0.613 0.133l-6.613 7.715-6.613-7.715c0.191-0.087 0.399-0.133 0.613-0.133zM4.5 16.5v-9c0-0.031 0.001-0.063 0.003-0.094l4.398 5.131-4.35 4.35c-0.034-0.125-0.052-0.255-0.052-0.388zM18 18h-12c-0.133 0-0.263-0.018-0.388-0.052l4.268-4.268 2.119 2.473 2.119-2.473 4.268 4.268c-0.125 0.034-0.255 0.052-0.388 0.052zM19.5 16.5c0 0.133-0.018 0.263-0.052 0.388l-4.35-4.35 4.398-5.131c0.002 0.031 0.003 0.062 0.003 0.094v9z"></path>
</g>
<g id="icon-googleplus">
	<path class="path1" d="M10.242 19.176c0 1.759-1.087 3.15-4.166 3.262-1.804-1.026-3.316-2.507-4.381-4.286 0.555-1.371 2.29-2.415 4.273-2.393 0.563 0.006 1.088 0.096 1.564 0.251 1.31 0.911 2.367 1.48 2.633 2.518 0.050 0.21 0.077 0.427 0.077 0.648zM12 0c-3.467 0-6.591 1.471-8.781 3.823 0.866-0.479 1.888-0.765 2.974-0.765 1.572 0 6.010 0 6.010 0l-1.343 1.41h-1.578c1.113 0.638 1.705 1.951 1.705 3.399 0 1.329-0.736 2.4-1.776 3.212-1.014 0.792-1.207 1.124-1.207 1.798 0 0.575 1.212 1.432 1.77 1.85 1.941 1.456 2.334 2.372 2.334 4.192 0 1.845-1.616 3.682-4.356 4.306 1.321 0.5 2.752 0.775 4.248 0.775 6.627 0 12-5.373 12-12s-5.373-12-12-12zM18 9v3h-1.5v-3h-3v-1.5h3v-3h1.5v3h3v1.5h-3zM8.573 7.956c0.279 2.128-0.653 3.497-2.272 3.448s-3.16-1.535-3.439-3.662c-0.28-2.128 0.807-3.756 2.426-3.708s3.005 1.794 3.285 3.921zM5.177 15.048c-1.75 0-3.237 0.604-4.285 1.497-0.574-1.402-0.892-2.936-0.892-4.545 0-1.33 0.217-2.61 0.617-3.806 0.173 2.331 1.813 4.13 4.523 4.13 0.2 0 0.393-0.010 0.583-0.024-0.186 0.357-0.319 0.754-0.319 1.171 0 0.702 0.386 1.103 0.864 1.568-0.361 0-0.709 0.010-1.090 0.010z"></path>
</g>
<g id="icon-github">
	<path class="path1" d="M12 0c-6.627 0-12 5.373-12 12s5.373 12 12 12 12-5.373 12-12-5.373-12-12-12zM19.126 19.126c-0.926 0.926-2.004 1.653-3.204 2.161-0.305 0.129-0.614 0.242-0.928 0.34v-1.798c0-0.945-0.324-1.641-0.973-2.086 0.406-0.039 0.779-0.094 1.119-0.164s0.699-0.172 1.078-0.305 0.719-0.291 1.020-0.475 0.59-0.422 0.867-0.715 0.51-0.625 0.697-0.996 0.336-0.816 0.445-1.336 0.164-1.092 0.164-1.717c0-1.211-0.395-2.242-1.184-3.094 0.359-0.938 0.32-1.957-0.117-3.059l-0.293-0.035c-0.203-0.023-0.568 0.062-1.096 0.258s-1.119 0.516-1.775 0.961c-0.93-0.258-1.895-0.387-2.895-0.387-1.008 0-1.969 0.129-2.883 0.387-0.414-0.281-0.807-0.514-1.178-0.697s-0.668-0.309-0.891-0.375-0.43-0.107-0.621-0.123-0.314-0.020-0.369-0.012-0.094 0.016-0.117 0.023c-0.437 1.109-0.477 2.129-0.117 3.059-0.789 0.852-1.184 1.883-1.184 3.094 0 0.625 0.055 1.197 0.164 1.717s0.258 0.965 0.445 1.336 0.42 0.703 0.697 0.996 0.566 0.531 0.867 0.715 0.641 0.342 1.020 0.475 0.738 0.234 1.078 0.305 0.713 0.125 1.119 0.164c-0.641 0.437-0.961 1.133-0.961 2.086v1.834c-0.354-0.105-0.703-0.23-1.045-0.375-1.2-0.508-2.278-1.234-3.204-2.161s-1.653-2.004-2.161-3.204c-0.525-1.241-0.791-2.561-0.791-3.922s0.266-2.681 0.791-3.922c0.508-1.2 1.234-2.278 2.161-3.204s2.004-1.653 3.204-2.161c1.241-0.525 2.561-0.791 3.922-0.791s2.681 0.266 3.922 0.791c1.2 0.508 2.278 1.234 3.204 2.161s1.653 2.004 2.161 3.204c0.525 1.241 0.791 2.561 0.791 3.922s-0.266 2.681-0.791 3.922c-0.508 1.2-1.234 2.278-2.161 3.204z"></path>
</g>
</defs>

<g fill="#f04124">
	<use xlink:href="#icon-home" transform="translate(0 0)"></use>
	<use xlink:href="#icon-book" transform="translate(40 0)"></use>
	<use xlink:href="#icon-download" transform="translate(80 0)"></use>
	<use xlink:href="#icon-mail" transform="translate(120 0)"></use>
	<use xlink:href="#icon-googleplus" transform="translate(160 0)"></use>
	<use xlink:href="#icon-github" transform="translate(200 0)"></use>
</g>

</svg>
